<svg width="16" height="16" viewBox="0 0 16 16" fill="none" xmlns="http://www.w3.org/2000/svg">
<path d="M7.15565 13.1924C7.25235 13.2799 7.37941 13.3261 7.50973 13.3213C7.64006 13.3164 7.76332 13.2608 7.85325 13.1664C7.94318 13.072 7.99264 12.9461 7.9911 12.8157C7.98956 12.6853 7.93712 12.5607 7.84499 12.4684L3.67765 8.49903H13.5003C13.6329 8.49903 13.7601 8.44636 13.8539 8.35259C13.9476 8.25882 14.0003 8.13164 14.0003 7.99904C14.0003 7.86643 13.9476 7.73925 13.8539 7.64548C13.7601 7.55171 13.6329 7.49904 13.5003 7.49904H3.67765L7.84499 3.52904C7.93712 3.43674 7.98956 3.3121 7.9911 3.1817C7.99264 3.0513 7.94318 2.92545 7.85325 2.831C7.76332 2.73656 7.64006 2.68098 7.50973 2.67613C7.37941 2.67128 7.25235 2.71753 7.15565 2.80504L2.20899 7.51637C2.10072 7.61909 2.03026 7.75532 2.00899 7.90304C1.99678 7.9667 1.99701 8.03212 2.00965 8.0957C2.03107 8.24318 2.10152 8.37915 2.20965 8.4817L7.15565 13.1924Z" fill="#131D73"/>
</svg>
