<svg width="32" height="32" viewBox="0 0 32 32" fill="none" xmlns="http://www.w3.org/2000/svg">
<path d="M6 22.6654H12C12.93 22.6654 13.395 22.6654 13.7765 22.7676C14.8117 23.045 15.6204 23.8536 15.8978 24.8889C16 25.2704 16 25.7354 16 26.6654V11.332C16 8.5036 16 7.08939 15.1213 6.21071C14.2426 5.33203 12.8284 5.33203 10 5.33203H6C5.05719 5.33203 4.58579 5.33203 4.29289 5.62492C4 5.91782 4 6.38922 4 7.33203V20.6654C4 21.6082 4 22.0796 4.29289 22.3725C4.58579 22.6654 5.05719 22.6654 6 22.6654Z" stroke="white" stroke-width="2"/>
<path d="M26 22.6654H20C19.07 22.6654 18.605 22.6654 18.2235 22.7676C17.1883 23.045 16.3796 23.8536 16.1022 24.8889C16 25.2704 16 25.7354 16 26.6654V11.332C16 8.5036 16 7.08939 16.8787 6.21071C17.7574 5.33203 19.1716 5.33203 22 5.33203H26C26.9428 5.33203 27.4142 5.33203 27.7071 5.62492C28 5.91782 28 6.38922 28 7.33203V20.6654C28 21.6082 28 22.0796 27.7071 22.3725C27.4142 22.6654 26.9428 22.6654 26 22.6654Z" stroke="white" stroke-width="2"/>
</svg>
