<svg width="32" height="32" viewBox="0 0 32 32" fill="none" xmlns="http://www.w3.org/2000/svg">
<path d="M6.1267 25.8736L6.83381 25.1665L6.1267 25.8736C6.49548 26.2424 6.94744 26.2357 7.15413 26.2155C7.33375 26.1979 7.53668 26.1469 7.68316 26.1101C7.69516 26.1071 7.70678 26.1042 7.71798 26.1014L11.7054 25.1045C11.7234 25.1 11.7418 25.0955 11.7607 25.0908C11.969 25.0394 12.2327 24.9743 12.4745 24.8374C12.7162 24.7005 12.9077 24.5079 13.0589 24.3558C13.0727 24.3419 13.0861 24.3285 13.0991 24.3154L23.2932 14.1213C23.3061 14.1085 23.3189 14.0957 23.3317 14.0829C23.6316 13.7831 23.9231 13.4917 24.1311 13.219C24.3657 12.9116 24.5861 12.5137 24.5861 12C24.5861 11.4863 24.3657 11.0884 24.1311 10.781C23.9231 10.5083 23.6316 10.217 23.3317 9.91716C23.3192 9.90464 23.3066 9.89211 23.2941 9.87955C23.2938 9.87926 23.2935 9.87897 23.2932 9.87868L22.1216 8.70711C22.1088 8.69427 22.096 8.68144 22.0832 8.66863C21.7834 8.36871 21.492 8.07723 21.2193 7.86919C20.9119 7.63466 20.514 7.41421 20.0003 7.41421C19.4867 7.41421 19.0887 7.63466 18.7813 7.86919C18.5086 8.07723 18.2173 8.36871 17.9175 8.66863C17.9047 8.68145 17.8918 8.69427 17.879 8.70711L7.68493 18.9012C7.67186 18.9143 7.65838 18.9277 7.64456 18.9414C7.49239 19.0926 7.29978 19.2841 7.16289 19.5259L8.03309 20.0186L7.16289 19.5259C7.026 19.7676 6.96094 20.0313 6.90953 20.2396C6.90486 20.2585 6.90031 20.277 6.89583 20.2949L5.89896 24.2823C5.89616 24.2936 5.89324 24.3052 5.89022 24.3172C5.8534 24.4637 5.8024 24.6666 5.78483 24.8462C5.76461 25.0529 5.75792 25.5048 6.1267 25.8736Z" stroke="#07AAC5" stroke-width="2"/>
<path d="M16.667 9.9987L20.667 7.33203L24.667 11.332L22.0003 15.332L16.667 9.9987Z" fill="#07AAC5"/>
</svg>
