<svg width="32" height="32" viewBox="0 0 32 32" fill="none" xmlns="http://www.w3.org/2000/svg">
<path d="M29.2097 7.49436C29.2923 7.77169 29.3337 8.05969 29.3337 8.34903V23.6517C29.3335 24.1186 29.2243 24.5791 29.0149 24.9964C28.8054 25.4137 28.5014 25.7764 28.1271 26.0556C27.7528 26.3347 27.3185 26.5226 26.8588 26.6044C26.399 26.6861 25.9266 26.6594 25.479 26.5264L18.127 24.3397C17.6066 25.401 16.7485 26.2595 15.6874 26.7805C14.6263 27.3014 13.4223 27.4552 12.2643 27.2178C11.1063 26.9804 10.0599 26.3652 9.28941 25.4688C8.51887 24.5724 8.0678 23.4455 8.00699 22.265L8.00033 21.9984L7.99899 21.3317L4.81233 20.3837C4.19235 20.1994 3.64852 19.8197 3.26192 19.3012C2.87532 18.7827 2.66664 18.1531 2.66699 17.5064V14.4917C2.6673 13.8452 2.87643 13.2161 3.26325 12.6981C3.65007 12.1801 4.19387 11.8009 4.81366 11.617L25.4803 5.47569C26.2427 5.24929 27.0638 5.33489 27.7632 5.71368C28.4625 6.09246 28.9828 6.7321 29.2097 7.49436ZM9.99899 21.925L10.0003 21.997C9.99962 22.722 10.2353 23.4274 10.6715 24.0063C11.1078 24.5853 11.721 25.0062 12.418 25.2054C13.1151 25.4045 13.858 25.371 14.5343 25.1099C15.2106 24.8487 15.7833 24.3743 16.1657 23.7584L9.99899 21.925ZM26.0483 7.39169L5.38166 13.5317C5.17494 13.5932 4.99365 13.72 4.86486 13.893C4.73606 14.066 4.66665 14.276 4.66699 14.4917V17.5064C4.66665 17.722 4.73606 17.9321 4.86486 18.1051C4.99365 18.2781 5.17494 18.4048 5.38166 18.4664L26.0483 24.609C26.1977 24.6535 26.3554 24.6624 26.5088 24.6351C26.6623 24.6078 26.8072 24.5451 26.9321 24.4518C27.0569 24.3585 27.1583 24.2374 27.228 24.098C27.2977 23.9586 27.3339 23.8049 27.3337 23.649V8.35036C27.3337 8.19462 27.2974 8.04103 27.2275 7.90182C27.1577 7.76261 27.0564 7.64164 26.9315 7.54853C26.8067 7.45542 26.6618 7.39275 26.5085 7.36552C26.3552 7.33829 26.1976 7.34726 26.0483 7.39169Z" fill="white"/>
</svg>
