<svg width="32" height="32" viewBox="0 0 32 32" fill="none" xmlns="http://www.w3.org/2000/svg">
<path d="M16.4028 26.4698L16.8555 27.3615L16.8555 27.3615L16.4028 26.4698ZM15.5978 26.4698L15.1451 27.3615L15.1451 27.3615L15.5978 26.4698ZM24.3337 14.6654C24.3337 17.7155 22.7441 20.1988 20.8367 22.0808C18.9315 23.9607 16.8005 25.1464 15.9501 25.5781L16.8555 27.3615C17.794 26.885 20.1285 25.5893 22.2414 23.5045C24.3522 21.4218 26.3337 18.457 26.3337 14.6654H24.3337ZM16.0003 6.33203C20.6027 6.33203 24.3337 10.063 24.3337 14.6654H26.3337C26.3337 8.95842 21.7073 4.33203 16.0003 4.33203V6.33203ZM7.66699 14.6654C7.66699 10.063 11.398 6.33203 16.0003 6.33203V4.33203C10.2934 4.33203 5.66699 8.95842 5.66699 14.6654H7.66699ZM16.0505 25.5781C15.2001 25.1464 13.0692 23.9607 11.1639 22.0808C9.25651 20.1988 7.66699 17.7155 7.66699 14.6654H5.66699C5.66699 18.457 7.64843 21.4218 9.75921 23.5045C11.8721 25.5893 14.2066 26.885 15.1451 27.3615L16.0505 25.5781ZM15.9501 25.5781C15.9807 25.5626 16.02 25.5626 16.0505 25.5781L15.1451 27.3615C15.6836 27.6349 16.317 27.6349 16.8555 27.3615L15.9501 25.5781ZM19.0003 14.6654C19.0003 16.3222 17.6572 17.6654 16.0003 17.6654V19.6654C18.7618 19.6654 21.0003 17.4268 21.0003 14.6654H19.0003ZM16.0003 11.6654C17.6572 11.6654 19.0003 13.0085 19.0003 14.6654H21.0003C21.0003 11.9039 18.7618 9.66536 16.0003 9.66536V11.6654ZM13.0003 14.6654C13.0003 13.0085 14.3435 11.6654 16.0003 11.6654V9.66536C13.2389 9.66536 11.0003 11.9039 11.0003 14.6654H13.0003ZM16.0003 17.6654C14.3435 17.6654 13.0003 16.3222 13.0003 14.6654H11.0003C11.0003 17.4268 13.2389 19.6654 16.0003 19.6654V17.6654Z" fill="white"/>
</svg>
